<svg width="16" height="17" viewBox="0 0 16 17" fill="none" xmlns="http://www.w3.org/2000/svg">
<path d="M13.3333 6.5H7.33333C6.59695 6.5 6 7.09695 6 7.83333V13.8333C6 14.5697 6.59695 15.1667 7.33333 15.1667H13.3333C14.0697 15.1667 14.6667 14.5697 14.6667 13.8333V7.83333C14.6667 7.09695 14.0697 6.5 13.3333 6.5Z" stroke="#353535" stroke-width="1.5" stroke-linecap="round" stroke-linejoin="round"/>
<path d="M3.33398 10.4997H2.66732C2.3137 10.4997 1.97456 10.3592 1.72451 10.1092C1.47446 9.8591 1.33398 9.51996 1.33398 9.16634V3.16634C1.33398 2.81272 1.47446 2.47358 1.72451 2.22353C1.97456 1.97348 2.3137 1.83301 2.66732 1.83301H8.66732C9.02094 1.83301 9.36008 1.97348 9.61013 2.22353C9.86018 2.47358 10.0007 2.81272 10.0007 3.16634V3.83301" stroke="#353535" stroke-width="1.5" stroke-linecap="round" stroke-linejoin="round"/>
</svg>
