<svg width="140" height="100" viewBox="0 0 140 100" fill="none" xmlns="http://www.w3.org/2000/svg">
<rect width="140" height="100" rx="5" fill="#353535"/>
<rect x="12.5" y="16.5" width="114" height="10" rx="2.5" fill="#181D2C"/>
<rect x="17" y="19.5" width="18" height="4" rx="2" fill="#314D9B"/>
<path d="M120.75 20.25L118.25 22.75" stroke="#314D9B" stroke-linecap="round" stroke-linejoin="round"/>
<path d="M118.25 20.25L120.75 22.75" stroke="#314D9B" stroke-linecap="round" stroke-linejoin="round"/>
<rect x="12.5" y="16.5" width="114" height="10" rx="2.5" stroke="#314D9B"/>
<rect x="12.5" y="35.5" width="114" height="10" rx="2.5" fill="#0F3324"/>
<rect x="17" y="38.5" width="18" height="4" rx="2" fill="#38C98D"/>
<path d="M120.75 39.25L118.25 41.75" stroke="#38C98D" stroke-linecap="round" stroke-linejoin="round"/>
<path d="M118.25 39.25L120.75 41.75" stroke="#38C98D" stroke-linecap="round" stroke-linejoin="round"/>
<rect x="12.5" y="35.5" width="114" height="10" rx="2.5" stroke="#38C98D"/>
<rect x="12.5" y="54.5" width="114" height="10" rx="2.5" fill="#3B0C1B"/>
<rect x="17" y="57.5" width="18" height="4" rx="2" fill="#EB2E6A"/>
<path d="M120.75 58.25L118.25 60.75" stroke="#EB2E6A" stroke-linecap="round" stroke-linejoin="round"/>
<path d="M118.25 58.25L120.75 60.75" stroke="#EB2E6A" stroke-linecap="round" stroke-linejoin="round"/>
<rect x="12.5" y="54.5" width="114" height="10" rx="2.5" stroke="#EB2E6A"/>
<rect x="12.5" y="73.5" width="114" height="10" rx="2.5" fill="#3B2D0C"/>
<rect x="17" y="76.5" width="18" height="4" rx="2" fill="#EBB22C"/>
<path d="M120.75 77.25L118.25 79.75" stroke="#EBB22C" stroke-linecap="round" stroke-linejoin="round"/>
<path d="M118.25 77.25L120.75 79.75" stroke="#EBB22C" stroke-linecap="round" stroke-linejoin="round"/>
<rect x="12.5" y="73.5" width="114" height="10" rx="2.5" stroke="#EBB22C"/>
</svg>
