<svg width="140" height="100" viewBox="0 0 140 100" fill="none" xmlns="http://www.w3.org/2000/svg">
<rect width="140" height="100" rx="5" fill="#353535"/>
<path d="M36.8401 42.6101C36.3294 42.0991 35.7229 41.6938 35.0555 41.4172C34.388 41.1406 33.6726 40.9983 32.9501 40.9983C32.2276 40.9983 31.5122 41.1406 30.8448 41.4172C30.1773 41.6938 29.5709 42.0991 29.0601 42.6101L28.0001 43.6701L26.9401 42.6101C25.9084 41.5784 24.5092 40.9988 23.0501 40.9988C21.5911 40.9988 20.1918 41.5784 19.1601 42.6101C18.1284 43.6418 17.5488 45.0411 17.5488 46.5001C17.5488 47.9591 18.1284 49.3584 19.1601 50.3901L20.2201 51.4501L28.0001 59.2301L35.7801 51.4501L36.8401 50.3901C37.3511 49.8794 37.7565 49.2729 38.033 48.6055C38.3096 47.938 38.4519 47.2226 38.4519 46.5001C38.4519 45.7776 38.3096 45.0622 38.033 44.3948C37.7565 43.7273 37.3511 43.1209 36.8401 42.6101V42.6101Z" stroke="#EE618E" stroke-width="2" stroke-linecap="round" stroke-linejoin="round"/>
<path d="M69 55H65C64.4696 55 63.9609 55.2107 63.5858 55.5858C63.2107 55.9609 63 56.4696 63 57C63 57.5304 63.2107 58.0391 63.5858 58.4142C63.9609 58.7893 64.4696 59 65 59H67C67.5304 59 68.0391 58.7893 68.4142 58.4142C68.7893 58.0391 69 57.5304 69 57V55ZM81 53H77C76.4696 53 75.9609 53.2107 75.5858 53.5858C75.2107 53.9609 75 54.4696 75 55C75 55.5304 75.2107 56.0391 75.5858 56.4142C75.9609 56.7893 76.4696 57 77 57H79C79.5304 57 80.0391 56.7893 80.4142 56.4142C80.7893 56.0391 81 55.5304 81 55V53Z" stroke="#78E5B8" stroke-width="2" stroke-linecap="round" stroke-linejoin="round"/>
<path d="M69 55V43L81 41V53" stroke="#78E5B8" stroke-width="2" stroke-linecap="round" stroke-linejoin="round"/>
<path d="M125 49.5C125.003 50.8199 124.695 52.1219 124.1 53.3C123.394 54.7118 122.31 55.8992 120.967 56.7293C119.625 57.5594 118.078 57.9994 116.5 58C115.18 58.0035 113.878 57.6951 112.7 57.1L107 59L108.9 53.3C108.305 52.1219 107.997 50.8199 108 49.5C108.001 47.9218 108.441 46.3749 109.271 45.0326C110.101 43.6903 111.288 42.6056 112.7 41.9C113.878 41.305 115.18 40.9966 116.5 41H117C119.084 41.115 121.053 41.9948 122.529 43.4709C124.005 44.947 124.885 46.9157 125 49V49.5Z" stroke="#A7BCF0" stroke-width="2" stroke-linecap="round" stroke-linejoin="round"/>
</svg>
