<svg width="140" height="100" viewBox="0 0 140 100" fill="none" xmlns="http://www.w3.org/2000/svg">
<rect width="140" height="100" rx="5" fill="#353535"/>
<rect x="9" y="21" width="122" height="25" rx="12.5" fill="#859CDA"/>
<path d="M42.3193 29.0059H45.2861C46.6624 29.0059 47.6559 29.2064 48.2666 29.6074C48.8818 30.0085 49.1895 30.6419 49.1895 31.5078C49.1895 32.0911 49.0391 32.5765 48.7383 32.9639C48.4375 33.3512 48.0046 33.5951 47.4395 33.6953V33.7637C48.1413 33.8958 48.6562 34.1579 48.9844 34.5498C49.3171 34.9372 49.4834 35.4635 49.4834 36.1289C49.4834 37.0267 49.1689 37.7308 48.54 38.2412C47.9157 38.7471 47.0452 39 45.9287 39H42.3193V29.0059ZM43.9531 33.1348H45.5254C46.209 33.1348 46.708 33.0277 47.0225 32.8135C47.3369 32.5947 47.4941 32.2256 47.4941 31.7061C47.4941 31.2367 47.3232 30.8971 46.9814 30.6875C46.6442 30.4779 46.1064 30.373 45.3682 30.373H43.9531V33.1348ZM43.9531 34.4609V37.626H45.6895C46.373 37.626 46.888 37.4961 47.2344 37.2363C47.5853 36.972 47.7607 36.5573 47.7607 35.9922C47.7607 35.4727 47.583 35.0876 47.2275 34.8369C46.8721 34.5863 46.332 34.4609 45.6074 34.4609H43.9531ZM59.3955 29.0059V35.4727C59.3955 36.2109 59.236 36.8581 58.917 37.4141C58.6025 37.9655 58.1445 38.3916 57.543 38.6924C56.946 38.9886 56.2305 39.1367 55.3965 39.1367C54.1569 39.1367 53.193 38.8086 52.5049 38.1523C51.8167 37.4961 51.4727 36.5938 51.4727 35.4453V29.0059H53.1133V35.3291C53.1133 36.154 53.3047 36.7624 53.6875 37.1543C54.0703 37.5462 54.6582 37.7422 55.4512 37.7422C56.9915 37.7422 57.7617 36.9333 57.7617 35.3154V29.0059H59.3955ZM65.4043 39H63.7705V30.4072H60.8311V29.0059H68.3438V30.4072H65.4043V39ZM73.334 39H71.7002V30.4072H68.7607V29.0059H76.2734V30.4072H73.334V39ZM86.6846 33.9893C86.6846 35.6162 86.2767 36.8809 85.4609 37.7832C84.6497 38.6855 83.499 39.1367 82.0088 39.1367C80.5003 39.1367 79.3405 38.6901 78.5293 37.7969C77.7227 36.8991 77.3193 35.6253 77.3193 33.9756C77.3193 32.3258 77.7249 31.0589 78.5361 30.1748C79.3519 29.2907 80.514 28.8486 82.0225 28.8486C83.5081 28.8486 84.6566 29.2975 85.4678 30.1953C86.279 31.0931 86.6846 32.3577 86.6846 33.9893ZM79.0557 33.9893C79.0557 35.2197 79.304 36.154 79.8008 36.792C80.2975 37.4255 81.0335 37.7422 82.0088 37.7422C82.9795 37.7422 83.7109 37.4277 84.2031 36.7988C84.6999 36.1699 84.9482 35.2334 84.9482 33.9893C84.9482 32.7633 84.7021 31.8337 84.21 31.2002C83.7223 30.5667 82.9932 30.25 82.0225 30.25C81.0426 30.25 80.3021 30.5667 79.8008 31.2002C79.304 31.8337 79.0557 32.7633 79.0557 33.9893ZM97.1572 39H95.1543L90.2393 31.0361H90.1846L90.2188 31.4805C90.2826 32.3281 90.3145 33.1029 90.3145 33.8047V39H88.8311V29.0059H90.8135L95.7148 36.9287H95.7559C95.7467 36.8239 95.7285 36.4434 95.7012 35.7871C95.6738 35.1263 95.6602 34.6113 95.6602 34.2422V29.0059H97.1572V39Z" fill="#353535"/>
<rect x="9.5" y="54.5" width="121" height="24" rx="12" stroke="#DEE5F8"/>
<path d="M42.3193 62.0059H45.2861C46.6624 62.0059 47.6559 62.2064 48.2666 62.6074C48.8818 63.0085 49.1895 63.6419 49.1895 64.5078C49.1895 65.0911 49.0391 65.5765 48.7383 65.9639C48.4375 66.3512 48.0046 66.5951 47.4395 66.6953V66.7637C48.1413 66.8958 48.6562 67.1579 48.9844 67.5498C49.3171 67.9372 49.4834 68.4635 49.4834 69.1289C49.4834 70.0267 49.1689 70.7308 48.54 71.2412C47.9157 71.7471 47.0452 72 45.9287 72H42.3193V62.0059ZM43.9531 66.1348H45.5254C46.209 66.1348 46.708 66.0277 47.0225 65.8135C47.3369 65.5947 47.4941 65.2256 47.4941 64.7061C47.4941 64.2367 47.3232 63.8971 46.9814 63.6875C46.6442 63.4779 46.1064 63.373 45.3682 63.373H43.9531V66.1348ZM43.9531 67.4609V70.626H45.6895C46.373 70.626 46.888 70.4961 47.2344 70.2363C47.5853 69.972 47.7607 69.5573 47.7607 68.9922C47.7607 68.4727 47.583 68.0876 47.2275 67.8369C46.8721 67.5863 46.332 67.4609 45.6074 67.4609H43.9531ZM59.3955 62.0059V68.4727C59.3955 69.2109 59.236 69.8581 58.917 70.4141C58.6025 70.9655 58.1445 71.3916 57.543 71.6924C56.946 71.9886 56.2305 72.1367 55.3965 72.1367C54.1569 72.1367 53.193 71.8086 52.5049 71.1523C51.8167 70.4961 51.4727 69.5938 51.4727 68.4453V62.0059H53.1133V68.3291C53.1133 69.154 53.3047 69.7624 53.6875 70.1543C54.0703 70.5462 54.6582 70.7422 55.4512 70.7422C56.9915 70.7422 57.7617 69.9333 57.7617 68.3154V62.0059H59.3955ZM65.4043 72H63.7705V63.4072H60.8311V62.0059H68.3438V63.4072H65.4043V72ZM73.334 72H71.7002V63.4072H68.7607V62.0059H76.2734V63.4072H73.334V72ZM86.6846 66.9893C86.6846 68.6162 86.2767 69.8809 85.4609 70.7832C84.6497 71.6855 83.499 72.1367 82.0088 72.1367C80.5003 72.1367 79.3405 71.6901 78.5293 70.7969C77.7227 69.8991 77.3193 68.6253 77.3193 66.9756C77.3193 65.3258 77.7249 64.0589 78.5361 63.1748C79.3519 62.2907 80.514 61.8486 82.0225 61.8486C83.5081 61.8486 84.6566 62.2975 85.4678 63.1953C86.279 64.0931 86.6846 65.3577 86.6846 66.9893ZM79.0557 66.9893C79.0557 68.2197 79.304 69.154 79.8008 69.792C80.2975 70.4255 81.0335 70.7422 82.0088 70.7422C82.9795 70.7422 83.7109 70.4277 84.2031 69.7988C84.6999 69.1699 84.9482 68.2334 84.9482 66.9893C84.9482 65.7633 84.7021 64.8337 84.21 64.2002C83.7223 63.5667 82.9932 63.25 82.0225 63.25C81.0426 63.25 80.3021 63.5667 79.8008 64.2002C79.304 64.8337 79.0557 65.7633 79.0557 66.9893ZM97.1572 72H95.1543L90.2393 64.0361H90.1846L90.2188 64.4805C90.2826 65.3281 90.3145 66.1029 90.3145 66.8047V72H88.8311V62.0059H90.8135L95.7148 69.9287H95.7559C95.7467 69.8239 95.7285 69.4434 95.7012 68.7871C95.6738 68.1263 95.6602 67.6113 95.6602 67.2422V62.0059H97.1572V72Z" fill="#DEE5F8"/>
</svg>
