<svg width="16" height="17" viewBox="0 0 16 17" fill="none" xmlns="http://www.w3.org/2000/svg">
<g clip-path="url(#clip0)">
<path d="M5.99967 13.1668C2.66634 14.1668 2.66634 11.5001 1.33301 11.1668M10.6663 15.1668V12.5868C10.6913 12.2689 10.6484 11.9493 10.5404 11.6493C10.4323 11.3493 10.2616 11.0757 10.0397 10.8468C12.133 10.6135 14.333 9.82012 14.333 6.18012C14.3328 5.24934 13.9748 4.35425 13.333 3.68012C13.6369 2.86579 13.6154 1.96569 13.273 1.16679C13.273 1.16679 12.4863 0.933455 10.6663 2.15345C9.13835 1.73934 7.52767 1.73934 5.99967 2.15345C4.17967 0.933455 3.39301 1.16679 3.39301 1.16679C3.05059 1.96569 3.0291 2.86579 3.33301 3.68012C2.68643 4.35925 2.32802 5.26243 2.33301 6.20012C2.33301 9.81345 4.53301 10.6068 6.62634 10.8668C6.40701 11.0934 6.23785 11.3637 6.12988 11.6601C6.02191 11.9564 5.97755 12.2722 5.99967 12.5868V15.1668" stroke="#353535" stroke-width="1.5" stroke-linecap="round" stroke-linejoin="round"/>
</g>
<defs>
<clipPath id="clip0">
<rect width="16" height="16" fill="white" transform="translate(0 0.5)"/>
</clipPath>
</defs>
</svg>
