<svg width="140" height="100" viewBox="0 0 140 100" fill="none" xmlns="http://www.w3.org/2000/svg">
<rect width="140" height="100" rx="5" fill="#FEFEFE"/>
<path d="M29.6689 49.0195C29.6689 49.765 29.4248 50.3363 28.9365 50.7334C28.4482 51.1305 27.7533 51.3291 26.8516 51.3291H26.1094V54H24.9424V46.8613H26.998C27.89 46.8613 28.5573 47.0436 29 47.4082C29.446 47.7728 29.6689 48.3099 29.6689 49.0195ZM26.1094 50.3477H26.7295C27.3285 50.3477 27.7679 50.2435 28.0479 50.0352C28.3278 49.8268 28.4678 49.5013 28.4678 49.0586C28.4678 48.6484 28.3424 48.3424 28.0918 48.1406C27.8411 47.9388 27.4505 47.8379 26.9199 47.8379H26.1094V50.3477ZM32.1201 54H30.9727V46.4023H32.1201V54ZM37.1445 54L36.915 53.248H36.876C36.6156 53.5768 36.3535 53.8014 36.0898 53.9219C35.8262 54.0391 35.4876 54.0977 35.0742 54.0977C34.5436 54.0977 34.1286 53.9544 33.8291 53.668C33.5329 53.3815 33.3848 52.9762 33.3848 52.4521C33.3848 51.8955 33.5915 51.4756 34.0049 51.1924C34.4183 50.9092 35.0482 50.7546 35.8945 50.7285L36.8271 50.6992V50.4111C36.8271 50.0661 36.7458 49.8089 36.583 49.6396C36.4235 49.4671 36.1745 49.3809 35.8359 49.3809C35.5592 49.3809 35.2939 49.4215 35.04 49.5029C34.7861 49.5843 34.542 49.6803 34.3076 49.791L33.9365 48.9707C34.2295 48.8177 34.5501 48.7021 34.8984 48.624C35.2467 48.5426 35.5755 48.502 35.8848 48.502C36.5716 48.502 37.0892 48.6517 37.4375 48.9512C37.7891 49.2507 37.9648 49.721 37.9648 50.3623V54H37.1445ZM35.4355 53.2188C35.8522 53.2188 36.1859 53.1032 36.4365 52.8721C36.6904 52.6377 36.8174 52.3105 36.8174 51.8906V51.4219L36.124 51.4512C35.5837 51.4707 35.1898 51.5618 34.9424 51.7246C34.6982 51.8841 34.5762 52.1299 34.5762 52.4619C34.5762 52.7028 34.6478 52.89 34.791 53.0234C34.9342 53.1536 35.1491 53.2188 35.4355 53.2188ZM41.7441 54.0977C40.9271 54.0977 40.3053 53.86 39.8789 53.3848C39.4557 52.9062 39.2441 52.221 39.2441 51.3291C39.2441 50.4209 39.4655 49.7227 39.9082 49.2344C40.3542 48.7461 40.9971 48.502 41.8369 48.502C42.4066 48.502 42.9193 48.6077 43.375 48.8193L43.0283 49.7422C42.5433 49.5534 42.1429 49.459 41.8271 49.459C40.8929 49.459 40.4258 50.0791 40.4258 51.3193C40.4258 51.9248 40.5413 52.3805 40.7725 52.6865C41.0068 52.9893 41.3486 53.1406 41.7979 53.1406C42.3089 53.1406 42.7923 53.0137 43.248 52.7598V53.7607C43.043 53.8812 42.8232 53.9674 42.5889 54.0195C42.3577 54.0716 42.0762 54.0977 41.7441 54.0977ZM46.876 54.0977C46.0361 54.0977 45.3786 53.8535 44.9033 53.3652C44.4313 52.8737 44.1953 52.1982 44.1953 51.3389C44.1953 50.4567 44.415 49.7633 44.8545 49.2588C45.2939 48.7542 45.8978 48.502 46.666 48.502C47.3789 48.502 47.9421 48.7184 48.3555 49.1514C48.7689 49.5843 48.9756 50.18 48.9756 50.9385V51.5586H45.377C45.3932 52.0827 45.5348 52.4863 45.8018 52.7695C46.0687 53.0495 46.4447 53.1895 46.9297 53.1895C47.2487 53.1895 47.5449 53.1602 47.8184 53.1016C48.0951 53.0397 48.3913 52.9388 48.707 52.7988V53.7314C48.4271 53.8649 48.1439 53.9593 47.8574 54.0146C47.571 54.07 47.2438 54.0977 46.876 54.0977ZM46.666 49.3711C46.3014 49.3711 46.0085 49.4867 45.7871 49.7178C45.569 49.9489 45.4388 50.2858 45.3965 50.7285H47.8477C47.8411 50.2826 47.7337 49.9456 47.5254 49.7178C47.3171 49.4867 47.0306 49.3711 46.666 49.3711ZM55.0303 54H53.8779V50.6797C53.8779 50.263 53.7933 49.9521 53.624 49.7471C53.458 49.542 53.1927 49.4395 52.8281 49.4395C52.3464 49.4395 51.9915 49.5843 51.7637 49.874C51.5391 50.1605 51.4268 50.6423 51.4268 51.3193V54H50.2793V46.4023H51.4268V48.3311C51.4268 48.6403 51.4072 48.9707 51.3682 49.3223H51.4414C51.5977 49.0618 51.8141 48.86 52.0908 48.7168C52.3708 48.5736 52.6963 48.502 53.0674 48.502C54.376 48.502 55.0303 49.1611 55.0303 50.4795V54ZM61.417 51.29C61.417 52.1722 61.1908 52.8607 60.7383 53.3555C60.2858 53.8503 59.6559 54.0977 58.8486 54.0977C58.3441 54.0977 57.8981 53.9837 57.5107 53.7559C57.1234 53.528 56.8255 53.2008 56.6172 52.7744C56.4089 52.348 56.3047 51.8532 56.3047 51.29C56.3047 50.4144 56.5293 49.7308 56.9785 49.2393C57.4277 48.7477 58.0609 48.502 58.8779 48.502C59.6592 48.502 60.2777 48.7542 60.7334 49.2588C61.1891 49.7601 61.417 50.4372 61.417 51.29ZM57.4863 51.29C57.4863 52.5368 57.9469 53.1602 58.8682 53.1602C59.7796 53.1602 60.2354 52.5368 60.2354 51.29C60.2354 50.0563 59.7764 49.4395 58.8584 49.4395C58.3766 49.4395 58.0267 49.599 57.8086 49.918C57.5938 50.237 57.4863 50.6943 57.4863 51.29ZM63.8877 54H62.7402V46.4023H63.8877V54ZM67.3545 54.0977C66.6807 54.0977 66.1549 53.8535 65.7773 53.3652C65.3997 52.877 65.2109 52.1917 65.2109 51.3096C65.2109 50.4242 65.4014 49.7357 65.7822 49.2441C66.1663 48.7493 66.6969 48.502 67.374 48.502C68.0837 48.502 68.624 48.764 68.9951 49.2881H69.0537C68.9984 48.9007 68.9707 48.5947 68.9707 48.3701V46.4023H70.123V54H69.2246L69.0244 53.292H68.9707C68.6029 53.8291 68.0641 54.0977 67.3545 54.0977ZM67.6621 53.1699C68.1341 53.1699 68.4775 53.0381 68.6924 52.7744C68.9072 52.5075 69.0179 52.0762 69.0244 51.4805V51.3193C69.0244 50.639 68.9137 50.1556 68.6924 49.8691C68.471 49.5827 68.1243 49.4395 67.6523 49.4395C67.2487 49.4395 66.9378 49.6038 66.7197 49.9326C66.5016 50.2581 66.3926 50.7236 66.3926 51.3291C66.3926 51.9281 66.4984 52.3854 66.71 52.7012C66.9215 53.0137 67.2389 53.1699 67.6621 53.1699ZM74.1221 54.0977C73.2822 54.0977 72.6247 53.8535 72.1494 53.3652C71.6774 52.8737 71.4414 52.1982 71.4414 51.3389C71.4414 50.4567 71.6611 49.7633 72.1006 49.2588C72.54 48.7542 73.1439 48.502 73.9121 48.502C74.625 48.502 75.1882 48.7184 75.6016 49.1514C76.015 49.5843 76.2217 50.18 76.2217 50.9385V51.5586H72.623C72.6393 52.0827 72.7809 52.4863 73.0479 52.7695C73.3148 53.0495 73.6908 53.1895 74.1758 53.1895C74.4948 53.1895 74.791 53.1602 75.0645 53.1016C75.3411 53.0397 75.6374 52.9388 75.9531 52.7988V53.7314C75.6732 53.8649 75.39 53.9593 75.1035 54.0146C74.8171 54.07 74.4899 54.0977 74.1221 54.0977ZM73.9121 49.3711C73.5475 49.3711 73.2546 49.4867 73.0332 49.7178C72.8151 49.9489 72.6849 50.2858 72.6426 50.7285H75.0938C75.0872 50.2826 74.9798 49.9456 74.7715 49.7178C74.5632 49.4867 74.2767 49.3711 73.9121 49.3711ZM80.2646 48.502C80.4958 48.502 80.6862 48.5182 80.8359 48.5508L80.7236 49.6201C80.5609 49.5811 80.3916 49.5615 80.2158 49.5615C79.7568 49.5615 79.3841 49.7113 79.0977 50.0107C78.8145 50.3102 78.6729 50.6992 78.6729 51.1777V54H77.5254V48.5996H78.4238L78.5752 49.5518H78.6338C78.8128 49.2295 79.0456 48.974 79.332 48.7852C79.6217 48.5964 79.9326 48.502 80.2646 48.502Z" fill="black"/>
<rect x="16.5" y="39.5" width="108" height="21" rx="4.5" stroke="#353535"/>
</svg>
