<svg width="150" height="24" viewBox="0 0 150 24" fill="none" xmlns="http://www.w3.org/2000/svg">
<g clip-path="url(#clip0)">
<path d="M39.6519 9.93078C39.6519 9.42722 39.9292 9.17455 40.4154 9.17455H41.0654C41.5744 9.17455 41.8289 9.42663 41.8289 9.93078V10.961C41.8267 11.1839 41.8038 11.406 41.7605 11.6247H41.8055C42.3853 10.2742 44.0311 8.89697 45.8839 8.89697C47.8538 8.89697 48.99 9.78665 49.4059 11.5304H49.4528C50.0794 10.1799 51.6999 8.89697 53.5942 8.89697C56.2591 8.89697 57.4638 10.3845 57.4638 13.3454V20.0091C57.4638 20.5132 57.2087 20.7653 56.6985 20.7653H55.9782C55.4921 20.7653 55.213 20.5126 55.213 20.0091V13.824C55.213 12.1977 54.8889 10.9148 53.1512 10.9148C50.9725 10.9148 49.676 13.1372 49.676 15.3632V20.0108C49.676 20.5144 49.4203 20.7671 48.9342 20.7671H48.1923C47.7061 20.7671 47.4504 20.5144 47.4504 20.0108V13.824C47.4504 12.3116 47.22 10.9148 45.4121 10.9148C43.1884 10.9148 41.8901 13.2048 41.8901 15.3632V20.0108C41.8901 20.515 41.635 20.7671 41.1248 20.7671H40.4046C39.9184 20.7671 39.6411 20.5144 39.6411 20.0108L39.6519 9.93078Z" fill="#F5F5F5"/>
<path d="M66.0835 8.89697C69.5821 8.89697 72.4091 11.4379 72.4091 14.9468C72.4091 18.4557 69.5821 21.0375 66.0835 21.0375C62.5848 21.0375 59.7812 18.4717 59.7812 14.9468C59.7812 11.4219 62.592 8.89697 66.0835 8.89697ZM66.0835 19.1087C68.3072 19.1087 70.1151 17.3685 70.1151 14.9415C70.1151 12.5144 68.3144 10.8205 66.0835 10.8205C63.8525 10.8205 62.059 12.5411 62.059 14.9468C62.059 17.3525 63.8885 19.1123 66.0835 19.1123V19.1087Z" fill="#F5F5F5"/>
<path d="M74.8955 5.35064C74.8955 4.84649 75.15 4.59501 75.659 4.5962H76.3792C76.8672 4.5962 77.1445 4.84709 77.1445 5.35064V17.3275C77.1445 18.6318 77.7243 18.8151 78.2104 18.8613C78.2951 18.8629 78.3785 18.8818 78.4555 18.9166C78.5324 18.9514 78.6013 19.0015 78.6579 19.0637C78.7145 19.126 78.7575 19.199 78.7843 19.2784C78.8111 19.3577 78.8211 19.4417 78.8137 19.525V20.0748C78.8137 20.5553 78.6048 20.8524 78.025 20.8524C76.7736 20.8524 74.8973 20.509 74.8973 17.6015L74.8955 5.35064Z" fill="#F5F5F5"/>
<path d="M80.9424 6.10687V5.35064C80.9424 4.84649 81.1975 4.59501 81.7077 4.5962H82.4945C82.9825 4.5962 83.2598 4.84709 83.2598 5.35064V6.10687C83.2706 6.20879 83.2581 6.31179 83.2235 6.40837C83.1888 6.50494 83.1328 6.59266 83.0595 6.66511C82.9861 6.73757 82.8974 6.79294 82.7996 6.82719C82.7019 6.86145 82.5977 6.87371 82.4945 6.8631H81.7077C81.1981 6.8631 80.9424 6.58374 80.9424 6.10687ZM80.9658 9.93072C80.9658 9.42716 81.2431 9.17449 81.7311 9.17449H82.4513C82.9615 9.17449 83.216 9.42656 83.2148 9.93072V20.0054C83.2148 20.5096 82.9603 20.7617 82.4513 20.7617H81.7311C81.2431 20.7617 80.9658 20.509 80.9658 20.0054V9.93072Z" fill="#F5F5F5"/>
<path d="M86.4574 9.93047C86.4574 9.42691 86.7347 9.17424 87.2226 9.17424H87.8709C88.381 9.17424 88.6361 9.42632 88.6361 9.93047V11.2579C88.6361 11.5493 88.6126 11.8402 88.5659 12.128H88.6127C89.1223 10.5942 90.4422 9.0835 92.2032 9.0835C92.7434 9.0835 92.945 9.33439 92.945 9.83972V10.4803C92.945 10.9839 92.6443 11.2347 92.1113 11.2347C89.8173 11.2347 88.7046 13.6849 88.7046 15.975V20.0052C88.7046 20.5094 88.4501 20.7614 87.9411 20.7614H87.2208C86.7329 20.7614 86.4556 20.5088 86.4556 20.0052L86.4574 9.93047Z" fill="#F5F5F5"/>
<path d="M94.6826 6.10687V5.35064C94.6826 4.84649 94.9377 4.59501 95.4479 4.5962H96.2348C96.7227 4.5962 97 4.84709 97 5.35064V6.10687C97.0108 6.20879 96.9984 6.31179 96.9637 6.40837C96.929 6.50494 96.873 6.59266 96.7997 6.66511C96.7264 6.73757 96.6376 6.79294 96.5399 6.82719C96.4421 6.86145 96.3379 6.87371 96.2348 6.8631H95.4479C94.9383 6.8631 94.6826 6.58374 94.6826 6.10687ZM94.7132 9.93072C94.7132 9.42716 94.9905 9.17449 95.4785 9.17449H96.1988C96.7077 9.17449 96.9622 9.42656 96.9622 9.93072V20.0054C96.9622 20.5096 96.7077 20.7617 96.1988 20.7617H95.4785C94.9905 20.7617 94.7132 20.509 94.7132 20.0054V9.93072Z" fill="#F5F5F5"/>
<path d="M31.1097 4.83453C30.0161 3.99728 28.7052 3.48281 27.3283 3.35055C27.1141 3.35055 26.8566 3.30784 26.6423 3.30784C25.2448 3.30966 23.8768 3.70533 22.6989 4.44841C22.4253 3.94303 22.1097 3.46095 21.7554 3.00713C20.6829 1.70079 19.2271 0.754958 17.5883 0.299747C15.9495 -0.155464 14.2082 -0.0976859 12.604 0.465133C10.9998 1.02795 9.61145 2.06816 8.63002 3.44265C7.64859 4.81714 7.12227 6.45838 7.12346 8.14058V8.60855C6.94339 8.60855 6.77954 8.56585 6.60848 8.56585C4.85584 8.56019 3.17271 9.24276 1.92936 10.4634C0.686009 11.6841 -0.0157183 13.3428 -0.021449 15.0747C-0.0271797 16.8067 0.663556 18.4699 1.8988 19.6986C3.13405 20.9272 4.81263 21.6207 6.56526 21.6264H24.7516L27.6705 24L28.099 21.6673L28.2287 20.9057L28.3565 20.2687L30.7603 6.82741L31.1097 4.83453ZM16.2635 7.2509C16.5742 7.26279 16.8682 7.39312 17.0837 7.61457C17.2993 7.83601 17.4198 8.13135 17.4198 8.43862C17.4198 8.7459 17.2993 9.04124 17.0837 9.26268C16.8682 9.48413 16.5742 9.61446 16.2635 9.62635C15.9466 9.61954 15.6447 9.49213 15.4206 9.27068C15.1965 9.04923 15.0675 8.75084 15.0606 8.43773C15.0569 8.28073 15.0855 8.12461 15.1447 7.97884C15.2038 7.83308 15.2923 7.7007 15.4048 7.58973C15.5173 7.47876 15.6514 7.39151 15.799 7.33327C15.9466 7.27503 16.1046 7.247 16.2635 7.2509ZM11.6286 7.2509C11.8667 7.25055 12.0995 7.32001 12.2976 7.45048C12.4956 7.58095 12.6501 7.76657 12.7414 7.98383C12.8326 8.20109 12.8566 8.44023 12.8102 8.67096C12.7639 8.9017 12.6493 9.11365 12.481 9.27999C12.3126 9.44633 12.0981 9.55957 11.8647 9.60537C11.6312 9.65118 11.3892 9.62749 11.1693 9.53731C10.9494 9.44712 10.7616 9.2945 10.6296 9.09876C10.4975 8.90302 10.4273 8.67297 10.4276 8.43773C10.4345 8.1251 10.5632 7.82716 10.787 7.60605C11.0108 7.38493 11.3123 7.25771 11.6286 7.2509ZM13.2168 16.3701C13.26 18.0231 11.8429 19.3381 10.2133 19.3381C10.1656 19.3381 10.1198 19.3193 10.086 19.286C10.0522 19.2526 10.0333 19.2073 10.0333 19.1602V12.3826C10.0333 11.9663 10.2006 11.5672 10.4984 11.2728C10.7963 10.9785 11.2002 10.8132 11.6214 10.8132C12.0426 10.8132 12.4466 10.9785 12.7444 11.2728C13.0423 11.5672 13.2096 11.9663 13.2096 12.3826L13.2168 16.3701ZM17.8084 13.8666C17.8154 14.2602 17.7427 14.6513 17.5948 15.0169C17.4469 15.3825 17.2266 15.7152 16.9469 15.9956C16.6672 16.2759 16.3336 16.4984 15.9658 16.6497C15.598 16.8011 15.2034 16.8785 14.805 16.8772C14.7572 16.8772 14.7114 16.8585 14.6776 16.8251C14.6439 16.7918 14.6249 16.7465 14.6249 16.6993V12.3826C14.6244 12.1763 14.6652 11.9721 14.7448 11.7814C14.8245 11.5908 14.9414 11.4176 15.089 11.2718C15.2366 11.126 15.4118 11.0104 15.6047 10.9317C15.7976 10.853 16.0044 10.8127 16.213 10.8132C16.6317 10.8214 17.0308 10.9894 17.3269 11.2819C17.6229 11.5745 17.7929 11.9689 17.8012 12.3826L17.8084 13.8666Z" fill="#F5F5F5"/>
</g>
<path d="M112.47 20.5H106.5V10.3H107.67V19.555H112.335L112.47 20.5ZM114.519 11.785C114.289 11.785 114.099 11.71 113.949 11.56C113.799 11.4 113.724 11.205 113.724 10.975C113.714 10.755 113.784 10.57 113.934 10.42C114.094 10.26 114.289 10.18 114.519 10.18C114.739 10.18 114.929 10.26 115.089 10.42C115.259 10.57 115.344 10.755 115.344 10.975C115.344 11.205 115.259 11.4 115.089 11.56C114.929 11.71 114.739 11.785 114.519 11.785ZM113.934 20.5V13.225H115.134V20.5H113.934ZM117.509 20.5V10.075L118.694 9.91V13.75C118.984 13.53 119.304 13.355 119.654 13.225C120.004 13.085 120.339 13.015 120.659 13.015C121.729 13.015 122.524 13.38 123.044 14.11C123.564 14.84 123.824 15.755 123.824 16.855C123.824 17.965 123.559 18.88 123.029 19.6C122.509 20.32 121.719 20.68 120.659 20.68C120.299 20.68 119.929 20.61 119.549 20.47C119.169 20.32 118.819 20.12 118.499 19.87C118.459 19.97 118.414 20.075 118.364 20.185C118.314 20.295 118.264 20.4 118.214 20.5H117.509ZM118.694 18.925C118.974 19.175 119.269 19.365 119.579 19.495C119.899 19.625 120.199 19.69 120.479 19.69C121.259 19.69 121.814 19.415 122.144 18.865C122.474 18.315 122.639 17.65 122.639 16.87C122.639 16.06 122.479 15.385 122.159 14.845C121.839 14.295 121.279 14.02 120.479 14.02C120.199 14.02 119.899 14.09 119.579 14.23C119.269 14.36 118.974 14.55 118.694 14.8V18.925ZM125.755 20.5V13.225H126.475L126.835 14.245C127.105 14.015 127.45 13.79 127.87 13.57C128.3 13.34 128.71 13.225 129.1 13.225C129.14 13.385 129.185 13.545 129.235 13.705C129.285 13.855 129.335 14.01 129.385 14.17C128.955 14.17 128.52 14.29 128.08 14.53C127.64 14.76 127.26 15.035 126.94 15.355V20.5H125.755ZM131.396 18.43C131.396 18.74 131.501 19.035 131.711 19.315C131.931 19.595 132.281 19.735 132.761 19.735C133.181 19.735 133.566 19.63 133.916 19.42C134.266 19.21 134.566 18.96 134.816 18.67V17.005H132.896C132.406 17.005 132.031 17.15 131.771 17.44C131.521 17.72 131.396 18.05 131.396 18.43ZM130.766 13.675C131.046 13.485 131.441 13.33 131.951 13.21C132.461 13.09 132.866 13.03 133.166 13.03C134.006 13.03 134.686 13.26 135.206 13.72C135.736 14.17 136.001 14.76 136.001 15.49V20.5H135.281L134.966 19.765C134.716 19.995 134.391 20.205 133.991 20.395C133.591 20.585 133.191 20.68 132.791 20.68C131.951 20.68 131.326 20.47 130.916 20.05C130.506 19.62 130.301 19.08 130.301 18.43C130.301 17.71 130.541 17.165 131.021 16.795C131.511 16.415 132.146 16.225 132.926 16.225H134.801C134.801 15.625 134.706 15.115 134.516 14.695C134.326 14.275 133.891 14.065 133.211 14.065C132.721 14.065 132.316 14.12 131.996 14.23C131.676 14.34 131.381 14.455 131.111 14.575C131.061 14.425 131.006 14.275 130.946 14.125C130.886 13.975 130.826 13.825 130.766 13.675ZM138.265 20.5V13.225H138.985L139.345 14.245C139.615 14.015 139.96 13.79 140.38 13.57C140.81 13.34 141.22 13.225 141.61 13.225C141.65 13.385 141.695 13.545 141.745 13.705C141.795 13.855 141.845 14.01 141.895 14.17C141.465 14.17 141.03 14.29 140.59 14.53C140.15 14.76 139.77 15.035 139.45 15.355V20.5H138.265ZM144.671 21.685L145.106 20.455L142.301 13.405L143.471 13.225L145.676 18.85L147.761 13.225H148.946L146.726 19.18L145.736 22C145.576 22.46 145.286 22.845 144.866 23.155C144.456 23.475 143.996 23.69 143.486 23.8L143.126 22.945C143.486 22.785 143.801 22.62 144.071 22.45C144.341 22.28 144.541 22.025 144.671 21.685Z" fill="#D2D2D2"/>
<defs>
<clipPath id="clip0">
<rect width="97" height="24" fill="white"/>
</clipPath>
</defs>
</svg>
