<svg width="150" height="24" viewBox="0 0 150 24" fill="none" xmlns="http://www.w3.org/2000/svg">
<g clip-path="url(#clip0)">
<path d="M39.6517 9.9306C39.6517 9.42704 39.929 9.17437 40.4151 9.17437H41.0652C41.5741 9.17437 41.8286 9.42645 41.8286 9.9306V10.9608C41.8264 11.1837 41.8035 11.4058 41.7602 11.6245H41.8052C42.385 10.274 44.0308 8.89679 45.8837 8.89679C47.8535 8.89679 48.9897 9.78647 49.4057 11.5302H49.4525C50.0791 10.1797 51.6997 8.89679 53.594 8.89679C56.2589 8.89679 57.4635 10.3843 57.4635 13.3452V20.0089C57.4635 20.513 57.2084 20.7651 56.6982 20.7651H55.978C55.4918 20.7651 55.2127 20.5124 55.2127 20.0089V13.8238C55.2127 12.1975 54.8886 10.9146 53.151 10.9146C50.9722 10.9146 49.6758 13.137 49.6758 15.363V20.0107C49.6758 20.5142 49.4201 20.7669 48.9339 20.7669H48.1921C47.7059 20.7669 47.4502 20.5142 47.4502 20.0107V13.8238C47.4502 12.3114 47.2197 10.9146 45.4119 10.9146C43.1881 10.9146 41.8899 13.2046 41.8899 15.363V20.0107C41.8899 20.5148 41.6348 20.7669 41.1246 20.7669H40.4043C39.9182 20.7669 39.6409 20.5142 39.6409 20.0107L39.6517 9.9306Z" fill="#49587E"/>
<path d="M66.0832 8.89679C69.5818 8.89679 72.4088 11.4377 72.4088 14.9466C72.4088 18.4555 69.5818 21.0374 66.0832 21.0374C62.5845 21.0374 59.7809 18.4715 59.7809 14.9466C59.7809 11.4217 62.5917 8.89679 66.0832 8.89679ZM66.0832 19.1085C68.3069 19.1085 70.1148 17.3683 70.1148 14.9413C70.1148 12.5142 68.3141 10.8203 66.0832 10.8203C63.8522 10.8203 62.0587 12.5409 62.0587 14.9466C62.0587 17.3523 63.8882 19.1121 66.0832 19.1121V19.1085Z" fill="#49587E"/>
<path d="M74.8954 5.35052C74.8954 4.84637 75.1499 4.59489 75.6589 4.59607H76.3792C76.8671 4.59607 77.1444 4.84696 77.1444 5.35052V17.3274C77.1444 18.6317 77.7242 18.8149 78.2104 18.8612C78.295 18.8628 78.3784 18.8816 78.4554 18.9164C78.5324 18.9513 78.6013 19.0013 78.6579 19.0636C78.7144 19.1258 78.7574 19.1989 78.7842 19.2783C78.811 19.3576 78.821 19.4416 78.8136 19.5249V20.0747C78.8136 20.5551 78.6047 20.8523 78.0249 20.8523C76.7735 20.8523 74.8972 20.5089 74.8972 17.6014L74.8954 5.35052Z" fill="#49587E"/>
<path d="M80.9419 6.10675V5.35052C80.9419 4.84637 81.197 4.59489 81.7072 4.59607H82.4941C82.9821 4.59607 83.2594 4.84696 83.2594 5.35052V6.10675C83.2701 6.20867 83.2577 6.31167 83.223 6.40825C83.1884 6.50482 83.1323 6.59253 83.059 6.66499C82.9857 6.73745 82.8969 6.79282 82.7992 6.82707C82.7015 6.86132 82.5972 6.87359 82.4941 6.86298H81.7072C81.1976 6.86298 80.9419 6.58362 80.9419 6.10675ZM80.9653 9.93059C80.9653 9.42703 81.2426 9.17437 81.7306 9.17437H82.4509C82.961 9.17437 83.2155 9.42644 83.2143 9.93059V20.0053C83.2143 20.5095 82.9598 20.7616 82.4509 20.7616H81.7306C81.2426 20.7616 80.9653 20.5089 80.9653 20.0053V9.93059Z" fill="#49587E"/>
<path d="M86.4573 9.93053C86.4573 9.42697 86.7346 9.1743 87.2225 9.1743H87.8708C88.3809 9.1743 88.636 9.42638 88.636 9.93053V11.2579C88.636 11.5493 88.6125 11.8403 88.5658 12.128H88.6126C89.1222 10.5942 90.4421 9.08356 92.2031 9.08356C92.7433 9.08356 92.9449 9.33445 92.9449 9.83978V10.4804C92.9449 10.9839 92.6442 11.2348 92.1113 11.2348C89.8172 11.2348 88.7045 13.685 88.7045 15.975V20.0053C88.7045 20.5094 88.45 20.7615 87.941 20.7615H87.2207C86.7328 20.7615 86.4555 20.5088 86.4555 20.0053L86.4573 9.93053Z" fill="#49587E"/>
<path d="M94.6826 6.10675V5.35052C94.6826 4.84637 94.9376 4.59489 95.4478 4.59607H96.2347C96.7227 4.59607 97 4.84696 97 5.35052V6.10675C97.0107 6.20867 96.9983 6.31167 96.9636 6.40825C96.929 6.50482 96.8729 6.59253 96.7996 6.66499C96.7263 6.73745 96.6375 6.79282 96.5398 6.82707C96.4421 6.86132 96.3378 6.87359 96.2347 6.86298H95.4478C94.9382 6.86298 94.6826 6.58362 94.6826 6.10675ZM94.7132 9.93059C94.7132 9.42703 94.9905 9.17437 95.4784 9.17437H96.1987C96.7077 9.17437 96.9622 9.42644 96.9622 9.93059V20.0053C96.9622 20.5095 96.7077 20.7616 96.1987 20.7616H95.4784C94.9905 20.7616 94.7132 20.5089 94.7132 20.0053V9.93059Z" fill="#49587E"/>
<path d="M31.1095 4.83459C30.0159 3.99734 28.705 3.48287 27.3282 3.35061C27.1139 3.35061 26.8564 3.3079 26.6421 3.3079C25.2446 3.30972 23.8767 3.70539 22.6987 4.44847C22.4251 3.94309 22.1095 3.46101 21.7552 3.00719C20.6827 1.70085 19.2269 0.755019 17.5881 0.299808C15.9493 -0.155403 14.208 -0.0976249 12.6038 0.465194C10.9996 1.02801 9.61127 2.06822 8.62984 3.44271C7.64841 4.8172 7.12208 6.45844 7.12327 8.14064V8.60861C6.94321 8.60861 6.77935 8.56591 6.60829 8.56591C4.85566 8.56025 3.17253 9.24282 1.92918 10.4635C0.685826 11.6841 -0.0159014 13.3429 -0.0216321 15.0748C-0.0273628 16.8067 0.663373 18.47 1.89862 19.6986C3.13387 20.9273 4.81244 21.6207 6.56508 21.6264H24.7515L27.6703 24.0001L28.0988 21.6673L28.2285 20.9058L28.3563 20.2688L30.7602 6.82748L31.1095 4.83459ZM16.2633 7.25096C16.574 7.26285 16.868 7.39319 17.0836 7.61463C17.2991 7.83607 17.4196 8.13141 17.4196 8.43869C17.4196 8.74596 17.2991 9.0413 17.0836 9.26274C16.868 9.48419 16.574 9.61452 16.2633 9.62641C15.9464 9.6196 15.6445 9.49219 15.4204 9.27074C15.1963 9.04929 15.0673 8.7509 15.0605 8.4378C15.0568 8.28079 15.0853 8.12467 15.1445 7.9789C15.2037 7.83314 15.2922 7.70076 15.4046 7.58979C15.5171 7.47882 15.6512 7.39157 15.7988 7.33333C15.9464 7.27509 16.1044 7.24707 16.2633 7.25096ZM11.6285 7.25096C11.8665 7.25061 12.0993 7.32007 12.2974 7.45054C12.4955 7.58101 12.6499 7.76663 12.7412 7.98389C12.8324 8.20115 12.8564 8.44029 12.8101 8.67103C12.7637 8.90176 12.6491 9.11371 12.4808 9.28005C12.3125 9.44639 12.098 9.55963 11.8645 9.60543C11.631 9.65124 11.389 9.62755 11.1691 9.53737C10.9493 9.44718 10.7614 9.29456 10.6294 9.09882C10.4974 8.90308 10.4271 8.67303 10.4274 8.4378C10.4343 8.12516 10.5631 7.82723 10.7868 7.60611C11.0106 7.38499 11.3121 7.25777 11.6285 7.25096ZM13.2166 16.3702C13.2598 18.0232 11.8427 19.3382 10.2132 19.3382C10.1654 19.3382 10.1196 19.3194 10.0858 19.286C10.0521 19.2527 10.0331 19.2074 10.0331 19.1602V12.3826C10.0331 11.9664 10.2004 11.5672 10.4983 11.2729C10.7961 10.9786 11.2 10.8132 11.6213 10.8132C12.0425 10.8132 12.4464 10.9786 12.7442 11.2729C13.0421 11.5672 13.2094 11.9664 13.2094 12.3826L13.2166 16.3702ZM17.8082 13.8666C17.8152 14.2603 17.7426 14.6514 17.5946 15.0169C17.4467 15.3825 17.2264 15.7152 16.9467 15.9956C16.667 16.276 16.3335 16.4984 15.9657 16.6498C15.5979 16.8012 15.2032 16.8785 14.8048 16.8773C14.757 16.8773 14.7112 16.8586 14.6774 16.8252C14.6437 16.7918 14.6247 16.7466 14.6247 16.6994V12.3826C14.6242 12.1764 14.665 11.9721 14.7446 11.7815C14.8243 11.5909 14.9412 11.4177 15.0888 11.2719C15.2364 11.126 15.4116 11.0105 15.6045 10.9317C15.7974 10.853 16.0042 10.8128 16.2129 10.8132C16.6315 10.8214 17.0306 10.9894 17.3267 11.282C17.6227 11.5745 17.7927 11.969 17.801 12.3826L17.8082 13.8666Z" fill="#49587E"/>
</g>
<path d="M112.47 20.5H106.5V10.3H107.67V19.555H112.335L112.47 20.5ZM114.519 11.785C114.289 11.785 114.099 11.71 113.949 11.56C113.799 11.4 113.724 11.205 113.724 10.975C113.714 10.755 113.784 10.57 113.934 10.42C114.094 10.26 114.289 10.18 114.519 10.18C114.739 10.18 114.929 10.26 115.089 10.42C115.259 10.57 115.344 10.755 115.344 10.975C115.344 11.205 115.259 11.4 115.089 11.56C114.929 11.71 114.739 11.785 114.519 11.785ZM113.934 20.5V13.225H115.134V20.5H113.934ZM117.509 20.5V10.075L118.694 9.91V13.75C118.984 13.53 119.304 13.355 119.654 13.225C120.004 13.085 120.339 13.015 120.659 13.015C121.729 13.015 122.524 13.38 123.044 14.11C123.564 14.84 123.824 15.755 123.824 16.855C123.824 17.965 123.559 18.88 123.029 19.6C122.509 20.32 121.719 20.68 120.659 20.68C120.299 20.68 119.929 20.61 119.549 20.47C119.169 20.32 118.819 20.12 118.499 19.87C118.459 19.97 118.414 20.075 118.364 20.185C118.314 20.295 118.264 20.4 118.214 20.5H117.509ZM118.694 18.925C118.974 19.175 119.269 19.365 119.579 19.495C119.899 19.625 120.199 19.69 120.479 19.69C121.259 19.69 121.814 19.415 122.144 18.865C122.474 18.315 122.639 17.65 122.639 16.87C122.639 16.06 122.479 15.385 122.159 14.845C121.839 14.295 121.279 14.02 120.479 14.02C120.199 14.02 119.899 14.09 119.579 14.23C119.269 14.36 118.974 14.55 118.694 14.8V18.925ZM125.755 20.5V13.225H126.475L126.835 14.245C127.105 14.015 127.45 13.79 127.87 13.57C128.3 13.34 128.71 13.225 129.1 13.225C129.14 13.385 129.185 13.545 129.235 13.705C129.285 13.855 129.335 14.01 129.385 14.17C128.955 14.17 128.52 14.29 128.08 14.53C127.64 14.76 127.26 15.035 126.94 15.355V20.5H125.755ZM131.396 18.43C131.396 18.74 131.501 19.035 131.711 19.315C131.931 19.595 132.281 19.735 132.761 19.735C133.181 19.735 133.566 19.63 133.916 19.42C134.266 19.21 134.566 18.96 134.816 18.67V17.005H132.896C132.406 17.005 132.031 17.15 131.771 17.44C131.521 17.72 131.396 18.05 131.396 18.43ZM130.766 13.675C131.046 13.485 131.441 13.33 131.951 13.21C132.461 13.09 132.866 13.03 133.166 13.03C134.006 13.03 134.686 13.26 135.206 13.72C135.736 14.17 136.001 14.76 136.001 15.49V20.5H135.281L134.966 19.765C134.716 19.995 134.391 20.205 133.991 20.395C133.591 20.585 133.191 20.68 132.791 20.68C131.951 20.68 131.326 20.47 130.916 20.05C130.506 19.62 130.301 19.08 130.301 18.43C130.301 17.71 130.541 17.165 131.021 16.795C131.511 16.415 132.146 16.225 132.926 16.225H134.801C134.801 15.625 134.706 15.115 134.516 14.695C134.326 14.275 133.891 14.065 133.211 14.065C132.721 14.065 132.316 14.12 131.996 14.23C131.676 14.34 131.381 14.455 131.111 14.575C131.061 14.425 131.006 14.275 130.946 14.125C130.886 13.975 130.826 13.825 130.766 13.675ZM138.265 20.5V13.225H138.985L139.345 14.245C139.615 14.015 139.96 13.79 140.38 13.57C140.81 13.34 141.22 13.225 141.61 13.225C141.65 13.385 141.695 13.545 141.745 13.705C141.795 13.855 141.845 14.01 141.895 14.17C141.465 14.17 141.03 14.29 140.59 14.53C140.15 14.76 139.77 15.035 139.45 15.355V20.5H138.265ZM144.671 21.685L145.106 20.455L142.301 13.405L143.471 13.225L145.676 18.85L147.761 13.225H148.946L146.726 19.18L145.736 22C145.576 22.46 145.286 22.845 144.866 23.155C144.456 23.475 143.996 23.69 143.486 23.8L143.126 22.945C143.486 22.785 143.801 22.62 144.071 22.45C144.341 22.28 144.541 22.025 144.671 21.685Z" fill="#5E5E5E"/>
<defs>
<clipPath id="clip0">
<rect width="97" height="24" fill="white"/>
</clipPath>
</defs>
</svg>
