<svg width="97" height="24" viewBox="0 0 97 24" fill="none" xmlns="http://www.w3.org/2000/svg">
<g clip-path="url(#clip0)">
<path d="M39.6517 9.93066C39.6517 9.4271 39.929 9.17443 40.4151 9.17443H41.0652C41.5741 9.17443 41.8286 9.42651 41.8286 9.93066V10.9609C41.8264 11.1837 41.8035 11.4059 41.7602 11.6246H41.8052C42.385 10.2741 44.0308 8.89685 45.8837 8.89685C47.8535 8.89685 48.9897 9.78653 49.4057 11.5303H49.4525C50.0791 10.1798 51.6997 8.89685 53.594 8.89685C56.2589 8.89685 57.4635 10.3844 57.4635 13.3452V20.0089C57.4635 20.5131 57.2084 20.7652 56.6982 20.7652H55.978C55.4918 20.7652 55.2127 20.5125 55.2127 20.0089V13.8239C55.2127 12.1976 54.8886 10.9146 53.151 10.9146C50.9722 10.9146 49.6758 13.1371 49.6758 15.363V20.0107C49.6758 20.5143 49.4201 20.767 48.9339 20.767H48.1921C47.7059 20.767 47.4502 20.5143 47.4502 20.0107V13.8239C47.4502 12.3114 47.2197 10.9146 45.4119 10.9146C43.1881 10.9146 41.8899 13.2047 41.8899 15.363V20.0107C41.8899 20.5149 41.6348 20.767 41.1246 20.767H40.4043C39.9182 20.767 39.6409 20.5143 39.6409 20.0107L39.6517 9.93066Z" fill="#49587E"/>
<path d="M66.0832 8.89685C69.5818 8.89685 72.4088 11.4378 72.4088 14.9467C72.4088 18.4556 69.5818 21.0374 66.0832 21.0374C62.5845 21.0374 59.7809 18.4716 59.7809 14.9467C59.7809 11.4218 62.5917 8.89685 66.0832 8.89685ZM66.0832 19.1086C68.3069 19.1086 70.1148 17.3684 70.1148 14.9413C70.1148 12.5143 68.3141 10.8203 66.0832 10.8203C63.8522 10.8203 62.0587 12.541 62.0587 14.9467C62.0587 17.3524 63.8882 19.1122 66.0832 19.1122V19.1086Z" fill="#49587E"/>
<path d="M74.8954 5.35052C74.8954 4.84637 75.1499 4.59489 75.6589 4.59607H76.3792C76.8671 4.59607 77.1444 4.84696 77.1444 5.35052V17.3274C77.1444 18.6317 77.7242 18.8149 78.2104 18.8612C78.295 18.8628 78.3784 18.8816 78.4554 18.9164C78.5324 18.9513 78.6013 19.0013 78.6579 19.0636C78.7144 19.1258 78.7574 19.1989 78.7842 19.2783C78.811 19.3576 78.821 19.4416 78.8136 19.5249V20.0747C78.8136 20.5551 78.6047 20.8523 78.0249 20.8523C76.7735 20.8523 74.8972 20.5089 74.8972 17.6014L74.8954 5.35052Z" fill="#49587E"/>
<path d="M80.942 6.10675V5.35052C80.942 4.84637 81.197 4.59489 81.7072 4.59607H82.4941C82.9821 4.59607 83.2594 4.84696 83.2594 5.35052V6.10675C83.2701 6.20867 83.2577 6.31167 83.2231 6.40825C83.1884 6.50482 83.1324 6.59253 83.059 6.66499C82.9857 6.73745 82.8969 6.79282 82.7992 6.82707C82.7015 6.86132 82.5973 6.87359 82.4941 6.86298H81.7072C81.1976 6.86298 80.942 6.58362 80.942 6.10675ZM80.9654 9.93059C80.9654 9.42703 81.2427 9.17437 81.7306 9.17437H82.4509C82.9611 9.17437 83.2156 9.42644 83.2144 9.93059V20.0053C83.2144 20.5095 82.9599 20.7616 82.4509 20.7616H81.7306C81.2427 20.7616 80.9654 20.5089 80.9654 20.0053V9.93059Z" fill="#49587E"/>
<path d="M86.4573 9.93059C86.4573 9.42703 86.7346 9.17437 87.2226 9.17437H87.8708C88.381 9.17437 88.6361 9.42644 88.6361 9.93059V11.258C88.636 11.5494 88.6125 11.8404 88.5658 12.1281H88.6127C89.1222 10.5943 90.4421 9.08362 92.2031 9.08362C92.7433 9.08362 92.945 9.33451 92.945 9.83985V10.4804C92.945 10.984 92.6443 11.2349 92.1113 11.2349C89.8173 11.2349 88.7045 13.685 88.7045 15.9751V20.0053C88.7045 20.5095 88.45 20.7616 87.941 20.7616H87.2208C86.7328 20.7616 86.4555 20.5089 86.4555 20.0053L86.4573 9.93059Z" fill="#49587E"/>
<path d="M94.6826 6.10675V5.35052C94.6826 4.84637 94.9376 4.59489 95.4478 4.59607H96.2347C96.7227 4.59607 97 4.84696 97 5.35052V6.10675C97.0107 6.20867 96.9983 6.31167 96.9636 6.40825C96.929 6.50482 96.8729 6.59253 96.7996 6.66499C96.7263 6.73745 96.6375 6.79282 96.5398 6.82707C96.4421 6.86132 96.3378 6.87359 96.2347 6.86298H95.4478C94.9382 6.86298 94.6826 6.58362 94.6826 6.10675ZM94.7132 9.93059C94.7132 9.42703 94.9905 9.17437 95.4784 9.17437H96.1987C96.7077 9.17437 96.9622 9.42644 96.9622 9.93059V20.0053C96.9622 20.5095 96.7077 20.7616 96.1987 20.7616H95.4784C94.9905 20.7616 94.7132 20.5089 94.7132 20.0053V9.93059Z" fill="#49587E"/>
<path d="M31.1095 4.83453C30.0159 3.99728 28.705 3.48281 27.3282 3.35055C27.1139 3.35055 26.8564 3.30784 26.6421 3.30784C25.2446 3.30966 23.8767 3.70533 22.6987 4.44841C22.4251 3.94303 22.1095 3.46095 21.7552 3.00713C20.6827 1.70079 19.2269 0.754958 17.5881 0.299747C15.9493 -0.155464 14.208 -0.0976859 12.6038 0.465133C10.9996 1.02795 9.61127 2.06816 8.62984 3.44265C7.64841 4.81714 7.12208 6.45838 7.12327 8.14058V8.60855C6.94321 8.60855 6.77935 8.56585 6.60829 8.56585C4.85566 8.56019 3.17253 9.24276 1.92918 10.4634C0.685826 11.6841 -0.0159014 13.3428 -0.0216321 15.0747C-0.0273628 16.8067 0.663373 18.4699 1.89862 19.6986C3.13387 20.9272 4.81244 21.6207 6.56508 21.6264H24.7515L27.6703 24L28.0988 21.6673L28.2285 20.9057L28.3563 20.2687L30.7602 6.82741L31.1095 4.83453ZM16.2633 7.2509C16.574 7.26279 16.868 7.39312 17.0836 7.61457C17.2991 7.83601 17.4196 8.13135 17.4196 8.43862C17.4196 8.7459 17.2991 9.04124 17.0836 9.26268C16.868 9.48413 16.574 9.61446 16.2633 9.62635C15.9464 9.61954 15.6445 9.49213 15.4204 9.27068C15.1963 9.04923 15.0673 8.75084 15.0605 8.43773C15.0568 8.28073 15.0853 8.12461 15.1445 7.97884C15.2037 7.83308 15.2922 7.7007 15.4046 7.58973C15.5171 7.47876 15.6512 7.39151 15.7988 7.33327C15.9464 7.27503 16.1044 7.247 16.2633 7.2509ZM11.6285 7.2509C11.8665 7.25055 12.0993 7.32001 12.2974 7.45048C12.4955 7.58095 12.6499 7.76657 12.7412 7.98383C12.8324 8.20109 12.8564 8.44023 12.8101 8.67096C12.7637 8.9017 12.6491 9.11365 12.4808 9.27999C12.3125 9.44633 12.098 9.55957 11.8645 9.60537C11.631 9.65118 11.389 9.62749 11.1691 9.53731C10.9493 9.44712 10.7614 9.2945 10.6294 9.09876C10.4974 8.90302 10.4271 8.67297 10.4274 8.43773C10.4343 8.1251 10.5631 7.82716 10.7868 7.60605C11.0106 7.38493 11.3121 7.25771 11.6285 7.2509ZM13.2166 16.3701C13.2598 18.0231 11.8427 19.3381 10.2132 19.3381C10.1654 19.3381 10.1196 19.3193 10.0858 19.286C10.0521 19.2526 10.0331 19.2073 10.0331 19.1602V12.3826C10.0331 11.9663 10.2004 11.5672 10.4983 11.2728C10.7961 10.9785 11.2 10.8132 11.6213 10.8132C12.0425 10.8132 12.4464 10.9785 12.7442 11.2728C13.0421 11.5672 13.2094 11.9663 13.2094 12.3826L13.2166 16.3701ZM17.8082 13.8666C17.8152 14.2602 17.7426 14.6513 17.5946 15.0169C17.4467 15.3825 17.2264 15.7152 16.9467 15.9956C16.667 16.2759 16.3335 16.4984 15.9657 16.6497C15.5979 16.8011 15.2032 16.8785 14.8048 16.8772C14.757 16.8772 14.7112 16.8585 14.6774 16.8251C14.6437 16.7918 14.6247 16.7465 14.6247 16.6993V12.3826C14.6242 12.1763 14.665 11.9721 14.7446 11.7814C14.8243 11.5908 14.9412 11.4176 15.0888 11.2718C15.2364 11.126 15.4116 11.0104 15.6045 10.9317C15.7974 10.853 16.0042 10.8127 16.2129 10.8132C16.6315 10.8214 17.0306 10.9894 17.3267 11.2819C17.6227 11.5745 17.7927 11.9689 17.801 12.3826L17.8082 13.8666Z" fill="#49587E"/>
</g>
<defs>
<clipPath id="clip0">
<rect width="97" height="24" fill="white"/>
</clipPath>
</defs>
</svg>
