<svg width="140" height="100" viewBox="0 0 140 100" fill="none" xmlns="http://www.w3.org/2000/svg">
<rect width="140" height="100" rx="5" fill="#353535"/>
<rect x="16" y="38" width="109" height="24" rx="5" fill="#E3E3E3"/>
<path d="M49 50V56" stroke="#353535" stroke-linecap="round" stroke-linejoin="round"/>
<path d="M54.5933 54.2599C55.2435 53.9055 55.7572 53.3445 56.0532 52.6657C56.3493 51.9869 56.4108 51.2288 56.2281 50.5111C56.0454 49.7934 55.629 49.157 55.0444 48.7022C54.4599 48.2475 53.7406 48.0004 53 47.9999H52.16C51.9582 47.2194 51.5821 46.4948 51.0599 45.8806C50.5378 45.2664 49.8832 44.7785 49.1454 44.4537C48.4075 44.1289 47.6057 43.9755 46.8001 44.0052C45.9944 44.0349 45.206 44.2468 44.4941 44.6251C43.7822 45.0033 43.1652 45.538 42.6897 46.189C42.2142 46.84 41.8924 47.5903 41.7486 48.3835C41.6048 49.1768 41.6427 49.9923 41.8594 50.7688C42.0762 51.5453 42.4661 52.2625 43 52.8666" stroke="#353535" stroke-linecap="round" stroke-linejoin="round"/>
<path d="M51.6663 52.6667L48.9997 50L46.333 52.6667" stroke="#353535" stroke-linecap="round" stroke-linejoin="round"/>
<path d="M71.5381 46.8613V51.4805C71.5381 52.0078 71.4242 52.4701 71.1963 52.8672C70.9717 53.2611 70.6445 53.5654 70.2148 53.7803C69.7884 53.9919 69.2773 54.0977 68.6816 54.0977C67.7962 54.0977 67.1077 53.8633 66.6162 53.3945C66.1247 52.9258 65.8789 52.2812 65.8789 51.4609V46.8613H67.0508V51.3779C67.0508 51.9671 67.1875 52.4017 67.4609 52.6816C67.7344 52.9616 68.1543 53.1016 68.7207 53.1016C69.821 53.1016 70.3711 52.5238 70.3711 51.3682V46.8613H71.5381ZM75.9814 54.0977C75.2979 54.0977 74.7673 53.8519 74.3896 53.3604H74.3213C74.3669 53.8161 74.3896 54.0928 74.3896 54.1904V56.4023H73.2422V48.5996H74.1699C74.196 48.7005 74.2497 48.9414 74.3311 49.3223H74.3896C74.7477 48.7754 75.2848 48.502 76.001 48.502C76.6748 48.502 77.1989 48.7461 77.5732 49.2344C77.9508 49.7227 78.1396 50.4079 78.1396 51.29C78.1396 52.1722 77.9476 52.8607 77.5635 53.3555C77.1826 53.8503 76.6553 54.0977 75.9814 54.0977ZM75.7031 49.4395C75.2474 49.4395 74.9137 49.5729 74.7021 49.8398C74.4938 50.1068 74.3896 50.5332 74.3896 51.1191V51.29C74.3896 51.9476 74.4938 52.4245 74.7021 52.7207C74.9105 53.0137 75.2507 53.1602 75.7227 53.1602C76.1198 53.1602 76.4258 52.9974 76.6406 52.6719C76.8555 52.3464 76.9629 51.8825 76.9629 51.2803C76.9629 50.6748 76.8555 50.2174 76.6406 49.9082C76.429 49.5957 76.1165 49.4395 75.7031 49.4395ZM80.6201 54H79.4727V46.4023H80.6201V54ZM87.0557 51.29C87.0557 52.1722 86.8294 52.8607 86.377 53.3555C85.9245 53.8503 85.2946 54.0977 84.4873 54.0977C83.9827 54.0977 83.5368 53.9837 83.1494 53.7559C82.762 53.528 82.4642 53.2008 82.2559 52.7744C82.0475 52.348 81.9434 51.8532 81.9434 51.29C81.9434 50.4144 82.168 49.7308 82.6172 49.2393C83.0664 48.7477 83.6995 48.502 84.5166 48.502C85.2979 48.502 85.9163 48.7542 86.3721 49.2588C86.8278 49.7601 87.0557 50.4372 87.0557 51.29ZM83.125 51.29C83.125 52.5368 83.5856 53.1602 84.5068 53.1602C85.4183 53.1602 85.874 52.5368 85.874 51.29C85.874 50.0563 85.415 49.4395 84.4971 49.4395C84.0153 49.4395 83.6654 49.599 83.4473 49.918C83.2324 50.237 83.125 50.6943 83.125 51.29ZM91.7578 54L91.5283 53.248H91.4893C91.2288 53.5768 90.9668 53.8014 90.7031 53.9219C90.4395 54.0391 90.1009 54.0977 89.6875 54.0977C89.1569 54.0977 88.7419 53.9544 88.4424 53.668C88.1462 53.3815 87.998 52.9762 87.998 52.4521C87.998 51.8955 88.2048 51.4756 88.6182 51.1924C89.0316 50.9092 89.6615 50.7546 90.5078 50.7285L91.4404 50.6992V50.4111C91.4404 50.0661 91.359 49.8089 91.1963 49.6396C91.0368 49.4671 90.7878 49.3809 90.4492 49.3809C90.1725 49.3809 89.9072 49.4215 89.6533 49.5029C89.3994 49.5843 89.1553 49.6803 88.9209 49.791L88.5498 48.9707C88.8428 48.8177 89.1634 48.7021 89.5117 48.624C89.86 48.5426 90.1888 48.502 90.498 48.502C91.1849 48.502 91.7025 48.6517 92.0508 48.9512C92.4023 49.2507 92.5781 49.721 92.5781 50.3623V54H91.7578ZM90.0488 53.2188C90.4655 53.2188 90.7992 53.1032 91.0498 52.8721C91.3037 52.6377 91.4307 52.3105 91.4307 51.8906V51.4219L90.7373 51.4512C90.1969 51.4707 89.8031 51.5618 89.5557 51.7246C89.3115 51.8841 89.1895 52.1299 89.1895 52.4619C89.1895 52.7028 89.2611 52.89 89.4043 53.0234C89.5475 53.1536 89.7624 53.2188 90.0488 53.2188ZM96.001 54.0977C95.3271 54.0977 94.8014 53.8535 94.4238 53.3652C94.0462 52.877 93.8574 52.1917 93.8574 51.3096C93.8574 50.4242 94.0479 49.7357 94.4287 49.2441C94.8128 48.7493 95.3434 48.502 96.0205 48.502C96.7301 48.502 97.2705 48.764 97.6416 49.2881H97.7002C97.6449 48.9007 97.6172 48.5947 97.6172 48.3701V46.4023H98.7695V54H97.8711L97.6709 53.292H97.6172C97.2493 53.8291 96.7106 54.0977 96.001 54.0977ZM96.3086 53.1699C96.7806 53.1699 97.124 53.0381 97.3389 52.7744C97.5537 52.5075 97.6644 52.0762 97.6709 51.4805V51.3193C97.6709 50.639 97.5602 50.1556 97.3389 49.8691C97.1175 49.5827 96.7708 49.4395 96.2988 49.4395C95.8952 49.4395 95.5843 49.6038 95.3662 49.9326C95.1481 50.2581 95.0391 50.7236 95.0391 51.3291C95.0391 51.9281 95.1449 52.3854 95.3564 52.7012C95.568 53.0137 95.8854 53.1699 96.3086 53.1699Z" fill="black"/>
</svg>
