<svg width="140" height="100" viewBox="0 0 140 100" fill="none" xmlns="http://www.w3.org/2000/svg">
<rect width="140" height="100" rx="5" fill="#FEFEFE"/>
<path d="M26.344 33.096H36.648L53.736 77H44.904L41.32 67.464H21.224L17.704 77H9.256L26.344 33.096ZM38.696 60.552L34.216 48.52C33.5333 46.8133 32.808 44.6373 32.04 41.992C31.912 41.608 31.784 41.2667 31.656 40.968C31.5707 40.6267 31.4853 40.3493 31.4 40.136H31.08L30.44 42.12L28.264 48.52L23.784 60.552H38.696Z" fill="#314D9B"/>
<path d="M66.672 77.768C63.9413 77.768 61.4667 77.1067 59.248 75.784C57.072 74.4187 55.984 71.9227 55.984 68.296C55.984 63.9867 57.8187 60.9573 61.488 59.208C65.1573 57.4587 70.3627 56.584 77.104 56.584V53.768C77.104 52.1467 76.6773 50.888 75.824 49.992C75.0133 49.096 73.52 48.648 71.344 48.648C69.0827 48.648 67.4827 49.0107 66.544 49.736C65.6053 50.4613 65.136 51.3573 65.136 52.424V53.32H57.712C57.6693 53.064 57.648 52.5947 57.648 51.912C57.648 49.0107 58.8853 46.728 61.36 45.064C63.8773 43.4 67.2053 42.568 71.344 42.568C75.824 42.568 79.1733 43.4853 81.392 45.32C83.6533 47.1547 84.784 49.7787 84.784 53.192V69.256C84.784 70.024 84.9973 70.6 85.424 70.984C85.8507 71.3253 86.384 71.496 87.024 71.496H89.072V76.744C87.7067 77.384 86.1067 77.704 84.272 77.704C82.608 77.704 81.2213 77.2987 80.112 76.488C79.0027 75.6773 78.256 74.568 77.872 73.16H77.424C74.9067 76.232 71.3227 77.768 66.672 77.768ZM68.976 71.624C71.4933 71.624 73.4773 70.8987 74.928 69.448C76.3787 67.9973 77.104 66.0347 77.104 63.56V62.024C72.9653 62.024 69.7227 62.4293 67.376 63.24C65.0293 64.008 63.856 65.4373 63.856 67.528C63.856 70.2587 65.5627 71.624 68.976 71.624Z" fill="#314D9B"/>
<rect x="26" y="8" width="101" height="6" rx="3" fill="#C4C4C4"/>
<rect x="57" y="21" width="70" height="6" rx="3" fill="#C4C4C4"/>
<rect x="95" y="34" width="32" height="6" rx="3" fill="#C4C4C4"/>
<rect x="95" y="47" width="32" height="6" rx="3" fill="#C4C4C4"/>
<rect x="95" y="60" width="32" height="6" rx="3" fill="#C4C4C4"/>
<rect x="95" y="73" width="32" height="6" rx="3" fill="#C4C4C4"/>
<rect x="48" y="86" width="79" height="6" rx="3" fill="#C4C4C4"/>
</svg>
